<svg xmlns="http://www.w3.org/2000/svg" viewBox="0 0 24 24"><g fill="#595bd4" fill-rule="evenodd" class="color6569d4 svgShape"><path fill="#fe9526" d="M15.5119,9.89154c0.0599,-0.26957 0.327,-0.43954 0.5966,-0.37963l3,0.66669c0.2655,0.059 0.4351,0.3194 0.3818,0.5861l-0.6667,3.3334c-0.0541,0.2707 -0.3176,0.4463 -0.5883,0.3922c-0.2708,-0.0542 -0.4464,-0.3176 -0.3923,-0.5884l0.5707,-2.8533l-2.5222,-0.5605c-0.2695,-0.0599 -0.4395,-0.327 -0.3796,-0.59656Z" class="color000000 svgShape"/><path fill="#fe9526" d="M3.70066,10.5995c0.22117,-0.1653 0.5345,-0.12 0.69984,0.1011c1.21912,1.6309 3.67551,2.7994 6.5751,2.7994c2.3116,0 4.353,-0.7447 5.7021,-1.8823c0.2111,-0.178 0.5266,-0.1511 0.7046,0.06c0.178,0.2111 0.1511,0.5266 -0.06,0.7046c-1.5539,1.3102 -3.8333,2.1177 -6.3467,2.1177c-3.13545,0 -5.92515,-1.2598 -7.37604,-3.2006c-0.16534,-0.2212 -0.12007,-0.5345 0.1011,-0.6999Z" class="color000000 svgShape"/></g></svg>